<svg width="256" height="256" viewBox="0 0 256 256" fill="none" xmlns="http://www.w3.org/2000/svg">
<path d="M0 88.7466C0 46.911 0 25.9933 12.9966 12.9966C25.9933 0 46.911 0 88.7466 0H167.254C209.089 0 230.006 0 243.003 12.9966C256 25.9933 256 46.911 256 88.7466V167.254C256 209.089 256 230.006 243.003 243.003C230.006 256 209.089 256 167.254 256H88.7466C46.911 256 25.9933 256 12.9966 243.003C0 230.006 0 209.089 0 167.254V88.7466Z" fill="black"/>
<path d="M176.64 77.6562H90.4531V121.603H134.4V165.549H178.347V79.363C178.347 78.4204 177.582 77.6562 176.64 77.6562Z" fill="white"/>
<path d="M134.4 121.602H132.693V123.308H134.4V121.602Z" fill="white"/>
<path d="M90.4531 121.602H132.693C133.636 121.602 134.4 122.366 134.4 123.308V165.548H92.1599C91.2173 165.548 90.4531 164.785 90.4531 163.842V121.602Z" fill="#959595"/>
<path d="M134.4 165.547H178.347L135.857 208.037C135.319 208.574 134.4 208.194 134.4 207.434V165.547Z" fill="#959595"/>
<path d="M90.4525 121.603H48.5659C47.8058 121.603 47.425 120.684 47.9625 120.146L90.4525 77.6562V121.603Z" fill="#959595"/>
</svg>
